<svg xmlns="http://www.w3.org/2000/svg" width="44" height="45" fill="none">
  <path fill="#9BE1A0" d="M37.9056 7.34867c-.133-.45082-.3574-.8669-.6583-1.22031s-.6713-.63596-1.0862-.82867c-.4121-.19988-.8623-.30083-1.3173-.29535H9.22806c-.45474-.02652-.9084.06884-1.31728.27689-.42396.19485-.80092.48487-1.10367.84913-.30076.3528-.52532.76818-.65864 1.21831-.13796.44663-.18048.91906-.12461 1.38445L8.94324 34.5762c.19581 1.7684 1.01466 3.3965 2.29636 4.5779C12.4924 40.334 14.122 40.9916 15.8145 41h12.4607c1.698-.0074 3.3335-.6647 4.5927-1.8459 1.2649-1.1928 2.0737-2.8178 2.2786-4.5779l1.5843-14.5275v-.2215L37.959 8.75158c.0689-.46687.0508-.94312-.0534-1.40291ZM19.9265 35.6837h-1.7801c-1.1531-.0665-2.2508-.5348-3.1152-1.3291-.8613-.8048-1.4274-1.8941-1.6021-3.0827l-.4272-3.175c-.0548-.484.0752-.971.3624-1.3567.2871-.3858.7085-.6396 1.1739-.7072.4654-.0676.9379.0565 1.3161.3457.3783.2891.6324.7204.7078 1.2014l.4272 3.1381c.0479.343.212.6571.4629.886.2487.2367.5705.3741.9078.3877h1.7801c.4721 0 .9249.1944 1.2588.5406.3338.3462.5213.8157.5213 1.3053 0 .4896-.1875.9591-.5213 1.3053-.3339.3461-.7867.5406-1.2588.5406h-.2136Zm14.2409-17.0379c-3.756.7568-6.9602.9045-10.3602-1.846-4.2189-3.4519-9.3278-2.3443-14.24092-.5353l-.89006-7.82673a.554687.554687 0 0 1 0-.23997c.02423-.07756.06712-.14744.12461-.20305.04213-.06813.10467-.12001.17801-.14768.06983-.02052.14379-.02052.21362 0H35.0397c.0667.03872.1269.08862.178.14768.0534.05538.089.12737.1068.20305.0271.08385.0271.17458 0 .25843L34.1674 18.6458Z"/>
</svg>
