<?xml version="1.0" encoding="utf-8"?>
<!-- Generated by IcoMoon.io -->
<svg version="1.1" xmlns="http://www.w3.org/2000/svg" xmlns:xlink="http://www.w3.org/1999/xlink" width="752" height="32" viewBox="0 0 752 32">
<svg id="icon-chevron-left" width="32" height="32" viewBox="0 0 32 32" x="0" y="0">
<path fill="none" stroke-linejoin="round" stroke-linecap="round" stroke-miterlimit="4" stroke-width="3.5556" stroke="#000" d="M20 24l-8-8 8-8"></path>
</svg>
<svg id="icon-chevron-right" width="32" height="32" viewBox="0 0 32 32" >
<path fill="none" stroke-linejoin="round" stroke-linecap="round" stroke-miterlimit="4" stroke-width="3.5556" stroke="#000" d="M12 24l8-8-8-8"></path>
</svg>
<svg id="icon-chevron-down"  viewBox="0 0 32 32">
<path  stroke="#fff" stroke-linejoin="round" stroke-linecap="round" stroke-miterlimit="4" stroke-width="3.2" d="M8 12l8 8 8-8"></path>
</svg>
<svg id="icon-chevron-up"  viewBox="0 0 32 32" >
<path stroke="#fff" stroke-linejoin="round" stroke-linecap="round" stroke-miterlimit="4" stroke-width="3.2" d="M8 20l8-8 8 8"></path>
</svg>
<svg id="icon-minus" width="40" height="40" viewBox="0 0 32 32">
<path fill="none" stroke-linejoin="miter" stroke-linecap="butt" stroke-miterlimit="4" stroke-width="1.1163" stroke="#000" d="M16 0.558c8.528 0 15.442 6.914 15.442 15.442s-6.914 15.442-15.442 15.442c-8.528 0-15.442-6.914-15.442-15.442s6.914-15.442 15.442-15.442z"></path>
<path fill="none" stroke-linejoin="round" stroke-linecap="round" stroke-miterlimit="4" stroke-width="1.3395" stroke="#000" d="M10.286 16h11.429"></path>
</svg>
<!-- <svg id="icon-plus" width="40" height="40" viewBox="0 0 32 32"> -->
<svg id="icon-plus"  viewBox="0 0 32 32">
<!-- <path fill="none" stroke-linejoin="miter" stroke-linecap="butt" stroke-miterlimit="4" stroke-width="1.1163" stroke="#000" d="M16 0.558c8.528 0 15.442 6.914 15.442 15.442s-6.914 15.442-15.442 15.442c-8.528 0-15.442-6.914-15.442-15.442s6.914-15.442 15.442-15.442z"></path> -->
<path fill="none" stroke-linejoin="round" stroke-linecap="round" stroke-miterlimit="4" stroke-width="1.3395"  d="M16 10.286v11.429"></path>
<path fill="none" stroke-linejoin="round" stroke-linecap="round" stroke-miterlimit="4" stroke-width="1.3395"  d="M10.286 16h11.429"></path>
</svg>
 <svg id="icon-untitled" width="22" height="22" viewBox="0 0 32 32" >
<path fill="#1e1e1e" d="M0 0h32v32h-32v-32z"></path>
<path fill="#404040" d="M-7298.909-1802.182c0-1.6 1.309-2.909 2.909-2.909h11863.273c1.6 0 2.909 1.309 2.909 2.909v5364.364c0 1.6-1.309 2.909-2.909 2.909h-11863.273c-1.6 0-2.909-1.309-2.909-2.909v-5364.364z"></path>
<path fill="#fff" opacity="0.1" d="M-7296-1803.636v0zM4568.727-1802.182v5364.364h2.909v-5364.364h-2.909zM4567.273 3563.636v0zM-7297.455 3562.182v-5364.364h-2.909v5364.364h2.909zM-7296 3563.636c-0.8 0-1.455-0.655-1.455-1.455h-2.909c0 2.415 1.949 4.364 4.364 4.364v-2.909zM4568.727 3562.182c0 0.8-0.655 1.455-1.455 1.455v2.909c2.415 0 4.364-1.949 4.364-4.364h-2.909zM4567.273-1803.636c0.8 0 1.455 0.655 1.455 1.455h2.909c0-2.415-1.949-4.364-4.364-4.364v2.909zM-7296-1806.545c-2.415 0-4.364 1.949-4.364 4.364h2.909c0-0.8 0.655-1.455 1.455-1.455v-2.909z"></path>
<path fill="#fff" d="M-36.364-1217.455h1294.545c12.050 0 21.818 9.768 21.818 21.818v1405.091c0 12.050-9.768 21.818-21.818 21.818h-1294.545c-12.050 0-21.818-9.768-21.818-21.818v-1405.091c0-12.050 9.768-21.818 21.818-21.818z"></path>
<path fill="#9be1a0" d="M13.474 18.545c0.121 1.266 0.328 2.206 0.611 2.827 0.287 0.618 0.796 0.927 1.532 0.927 0.137 0 0.261-0.022 0.383-0.047 0.125 0.025 0.247 0.047 0.386 0.047 0.734 0 1.244-0.308 1.53-0.927 0.285-0.62 0.488-1.561 0.611-2.827l0.653-9.771c0.122-1.905 0.184-3.271 0.184-4.101 0-1.129-0.295-2.010-0.886-2.643-0.593-0.632-1.372-0.948-2.337-0.948-0.052 0-0.090 0.012-0.14 0.014-0.048-0.002-0.087-0.014-0.137-0.014-0.967 0-1.745 0.316-2.337 0.948s-0.888 1.515-0.888 2.643c0 0.83 0.060 2.196 0.184 4.101l0.652 9.77zM16.025 25.87c-0.937 0-1.733 0.295-2.394 0.886s-0.992 1.31-0.992 2.153c0 0.951 0.335 1.701 1 2.244 0.668 0.544 1.447 0.816 2.338 0.816 0.906 0 1.697-0.268 2.373-0.806 0.675-0.536 1.012-1.289 1.012-2.254 0-0.843-0.323-1.561-0.969-2.153s-1.436-0.887-2.37-0.887z"></path>
</svg>
<svg id="icon-untitled" width="32" height="32" viewBox="0 0 32 32">
<path fill="#1e1e1e" d="M0 0h32v32h-32v-32z"></path>
<path fill="#404040" d="M-7298.909-1802.182c0-1.6 1.309-2.909 2.909-2.909h11863.273c1.6 0 2.909 1.309 2.909 2.909v5364.364c0 1.6-1.309 2.909-2.909 2.909h-11863.273c-1.6 0-2.909-1.309-2.909-2.909v-5364.364z"></path>
<path fill="#fff" opacity="0.1" d="M-7296-1803.636v0zM4568.727-1802.182v5364.364h2.909v-5364.364h-2.909zM4567.273 3563.636v0zM-7297.455 3562.182v-5364.364h-2.909v5364.364h2.909zM-7296 3563.636c-0.8 0-1.455-0.655-1.455-1.455h-2.909c0 2.415 1.949 4.364 4.364 4.364v-2.909zM4568.727 3562.182c0 0.8-0.655 1.455-1.455 1.455v2.909c2.415 0 4.364-1.949 4.364-4.364h-2.909zM4567.273-1803.636c0.8 0 1.455 0.655 1.455 1.455h2.909c0-2.415-1.949-4.364-4.364-4.364v2.909zM-7296-1806.545c-2.415 0-4.364 1.949-4.364 4.364h2.909c0-0.8 0.655-1.455 1.455-1.455v-2.909z"></path>
<path fill="#fff" d="M-36.364-1217.455h1294.545c12.050 0 21.818 9.768 21.818 21.818v1405.091c0 12.050-9.768 21.818-21.818 21.818h-1294.545c-12.050 0-21.818-9.768-21.818-21.818v-1405.091c0-12.050 9.768-21.818 21.818-21.818z"></path>
<path fill="#9be1a0" d="M13.474 18.545c0.121 1.266 0.328 2.206 0.611 2.827 0.287 0.618 0.796 0.927 1.532 0.927 0.137 0 0.261-0.022 0.383-0.047 0.125 0.025 0.247 0.047 0.386 0.047 0.734 0 1.244-0.308 1.53-0.927 0.285-0.62 0.488-1.561 0.611-2.827l0.653-9.771c0.122-1.905 0.184-3.271 0.184-4.101 0-1.129-0.295-2.010-0.886-2.643-0.593-0.632-1.372-0.948-2.337-0.948-0.052 0-0.090 0.012-0.14 0.014-0.048-0.002-0.087-0.014-0.137-0.014-0.967 0-1.745 0.316-2.337 0.948s-0.888 1.515-0.888 2.643c0 0.83 0.060 2.196 0.184 4.101l0.652 9.77zM16.025 25.87c-0.937 0-1.733 0.295-2.394 0.886s-0.992 1.31-0.992 2.153c0 0.951 0.335 1.701 1 2.244 0.668 0.544 1.447 0.816 2.338 0.816 0.906 0 1.697-0.268 2.373-0.806 0.675-0.536 1.012-1.289 1.012-2.254 0-0.843-0.323-1.561-0.969-2.153s-1.436-0.887-2.37-0.887z"></path>
</svg>
<!-- <svg id="icon-edit-2" width="32" height="32" viewBox="0 0 32 32" x="336" y="0"> -->
<svg id="icon-edit-2"  viewBox="0 0 32 32" >
<path fill="none" stroke-linejoin="round" stroke-linecap="round" stroke-miterlimit="4" stroke-width="3.6" d="M22.666 4c0.35-0.35 0.766-0.628 1.223-0.817s0.948-0.287 1.443-0.287c0.495 0 0.986 0.098 1.443 0.287s0.873 0.467 1.224 0.817 0.628 0.766 0.817 1.223c0.19 0.458 0.287 0.948 0.287 1.443s-0.098 0.986-0.287 1.443c-0.189 0.458-0.467 0.873-0.817 1.223l-18 18-7.333 2 2-7.333 18-18z"></path>
</svg>
<svg id="icon-eye" width="20" height="20" viewBox="0 0 32 32">
  <path fill="none" stroke-linejoin="round" stroke-linecap="round" stroke-miterlimit="4" stroke-width="2.88" stroke="currentColor" d="M1.333 16c0 0 5.333-10.667 14.667-10.667s14.667 10.667 14.667 10.667c0 0-5.333 10.667-14.667 10.667s-14.667-10.667-14.667-10.667z"></path>
  <path fill="none" stroke-linejoin="round" stroke-linecap="round" stroke-miterlimit="4" stroke-width="2.88" stroke="currentColor" d="M16 20c2.209 0 4-1.791 4-4s-1.791-4-4-4c-2.209 0-4 1.791-4 4s1.791 4 4 4z"></path>
</svg>
<svg id="icon-eye-off" width="20" height="20" viewBox="0 0 32 32">
  <path fill="none" stroke-linejoin="round" stroke-linecap="round" stroke-miterlimit="4" stroke-width="2.88" stroke="currentColor" d="M23.92 23.92c-2.279 1.737-5.055 2.7-7.92 2.747-9.333 0-14.667-10.667-14.667-10.667 1.659-3.091 3.959-5.791 6.747-7.92M13.2 5.653c0.918-0.215 1.857-0.322 2.8-0.32 9.333 0 14.667 10.667 14.667 10.667-0.809 1.514-1.775 2.94-2.88 4.253M18.826 18.827c-0.366 0.393-0.808 0.708-1.298 0.927s-1.020 0.336-1.557 0.346-1.071-0.089-1.569-0.291c-0.498-0.201-0.951-0.5-1.33-0.88s-0.679-0.832-0.88-1.33c-0.201-0.498-0.3-1.032-0.29-1.569s0.127-1.067 0.346-1.557 0.534-0.932 0.927-1.298"></path>
  <path fill="none" stroke-linejoin="round" stroke-linecap="round" stroke-miterlimit="4" stroke-width="2.88" stroke="currentColor" d="M1.333 1.333l29.333 29.333"></path>
</svg>
<svg id="icon-log-out"  viewBox="0 0 32 32">
<path fill="none" stroke-linejoin="round" stroke-linecap="round" stroke-miterlimit="4" stroke-width="3" stroke="currentColor" d="M12 28h-5.333c-0.707 0-1.386-0.281-1.886-0.781s-0.781-1.178-0.781-1.886v-18.667c0-0.707 0.281-1.386 0.781-1.886s1.178-0.781 1.886-0.781h5.333"></path>
<path fill="none" stroke-linejoin="round" stroke-linecap="round" stroke-miterlimit="4" stroke-width="3" stroke="currentColor" d="M21.334 22.667l6.667-6.667-6.667-6.667"></path>
<path fill="none" stroke-linejoin="round" stroke-linecap="round" stroke-miterlimit="4" stroke-width="3" stroke="currentColor" d="M28 16h-16"></path>
</svg>
<svg id="icon-pie-chart-02" width="32" height="32" viewBox="0 0 32 32" x="528" y="0">
<path fill="none" stroke="#323f47" stroke-linejoin="round" stroke-linecap="round" stroke-miterlimit="4" stroke-width="2.6667" d="M22.933 18.667c0.369 0 0.554 0 0.704 0.082 0.123 0.068 0.238 0.195 0.293 0.324 0.067 0.157 0.050 0.324 0.016 0.659-0.174 1.733-0.77 3.404-1.744 4.861-1.172 1.754-2.838 3.121-4.787 3.929s-4.094 1.019-6.163 0.607c-2.069-0.412-3.97-1.428-5.462-2.919s-2.508-3.392-2.919-5.461c-0.412-2.069-0.2-4.214 0.607-6.163s2.175-3.615 3.929-4.787c1.457-0.974 3.128-1.57 4.861-1.744 0.334-0.034 0.502-0.050 0.659 0.016 0.13 0.055 0.257 0.17 0.324 0.293 0.082 0.15 0.082 0.334 0.082 0.704v8.533c0 0.373 0 0.56 0.073 0.703 0.064 0.125 0.166 0.227 0.291 0.291 0.143 0.073 0.329 0.073 0.703 0.073h8.533z"></path>
<path fill="none" stroke="#9be1a0" stroke-linejoin="round" stroke-linecap="round" stroke-miterlimit="4" stroke-width="2.6667" d="M18.667 3.733c0-0.369 0-0.554 0.082-0.704 0.068-0.123 0.195-0.238 0.324-0.293 0.157-0.067 0.324-0.050 0.659-0.016 2.438 0.245 4.73 1.323 6.478 3.071s2.826 4.040 3.071 6.478c0.033 0.334 0.050 0.502-0.016 0.659-0.055 0.13-0.17 0.257-0.293 0.324-0.15 0.082-0.334 0.082-0.704 0.082h-8.533c-0.373 0-0.56 0-0.703-0.073-0.125-0.064-0.227-0.166-0.291-0.291-0.073-0.143-0.073-0.329-0.073-0.703v-8.533z"></path>
</svg>
<svg id="icon-settings"  viewBox="0 0 32 32" >
<path fill="none" stroke-linejoin="round" stroke-linecap="round" stroke-miterlimit="4" stroke-width="3" stroke="currentColor" d="M16 20c2.209 0 4-1.791 4-4s-1.791-4-4-4c-2.209 0-4 1.791-4 4s1.791 4 4 4z"></path>
<path fill="none" stroke-linejoin="round" stroke-linecap="round" stroke-miterlimit="4" stroke-width="3" stroke="currentColor" d="M25.867 20c-0.178 0.402-0.231 0.848-0.152 1.281s0.285 0.832 0.592 1.146l0.080 0.080c0.248 0.248 0.445 0.542 0.579 0.865s0.203 0.671 0.203 1.021c0 0.35-0.069 0.697-0.203 1.021s-0.331 0.618-0.579 0.865c-0.248 0.248-0.542 0.445-0.866 0.579s-0.671 0.203-1.021 0.203c-0.35 0-0.697-0.069-1.021-0.203s-0.618-0.331-0.865-0.579l-0.080-0.080c-0.314-0.307-0.713-0.514-1.146-0.592s-0.879-0.025-1.281 0.152c-0.394 0.169-0.731 0.45-0.968 0.807s-0.364 0.777-0.366 1.206v0.227c0 0.707-0.281 1.386-0.781 1.886s-1.178 0.781-1.886 0.781-1.386-0.281-1.886-0.781c-0.5-0.5-0.781-1.178-0.781-1.886v-0.12c-0.010-0.441-0.153-0.869-0.41-1.228s-0.616-0.633-1.030-0.785c-0.402-0.178-0.848-0.231-1.281-0.152s-0.832 0.285-1.146 0.592l-0.080 0.080c-0.248 0.248-0.542 0.445-0.865 0.579s-0.671 0.203-1.021 0.203c-0.35 0-0.697-0.069-1.021-0.203s-0.618-0.331-0.865-0.579c-0.248-0.248-0.445-0.542-0.579-0.866s-0.203-0.671-0.203-1.021c0-0.35 0.069-0.697 0.203-1.021s0.331-0.618 0.579-0.865l0.080-0.080c0.307-0.314 0.514-0.713 0.592-1.146s0.025-0.879-0.152-1.281c-0.169-0.394-0.45-0.731-0.807-0.968s-0.777-0.364-1.206-0.366h-0.227c-0.707 0-1.386-0.281-1.886-0.781s-0.781-1.178-0.781-1.886c0-0.707 0.281-1.386 0.781-1.886s1.178-0.781 1.886-0.781h0.12c0.441-0.010 0.869-0.153 1.228-0.41s0.633-0.616 0.785-1.030c0.178-0.402 0.23-0.848 0.152-1.281s-0.285-0.832-0.592-1.146l-0.080-0.080c-0.248-0.248-0.445-0.542-0.579-0.866s-0.203-0.671-0.203-1.021c0-0.35 0.069-0.697 0.203-1.021s0.331-0.618 0.579-0.865c0.248-0.248 0.542-0.445 0.865-0.579s0.671-0.203 1.021-0.203c0.35 0 0.697 0.069 1.021 0.203s0.618 0.331 0.866 0.579l0.080 0.080c0.314 0.307 0.713 0.514 1.146 0.592s0.879 0.025 1.281-0.152h0.107c0.394-0.169 0.731-0.45 0.968-0.807s0.364-0.777 0.366-1.206v-0.227c0-0.707 0.281-1.386 0.781-1.886s1.178-0.781 1.886-0.781c0.707 0 1.386 0.281 1.886 0.781s0.781 1.178 0.781 1.886v0.12c0.002 0.429 0.129 0.848 0.366 1.206s0.573 0.638 0.968 0.807c0.402 0.177 0.848 0.23 1.281 0.152s0.832-0.285 1.146-0.592l0.080-0.080c0.248-0.248 0.542-0.445 0.865-0.579s0.671-0.203 1.021-0.203c0.35 0 0.697 0.069 1.021 0.203s0.618 0.331 0.865 0.579c0.248 0.248 0.445 0.542 0.579 0.865s0.203 0.671 0.203 1.021c0 0.35-0.069 0.697-0.203 1.021s-0.331 0.618-0.579 0.865l-0.080 0.080c-0.307 0.314-0.514 0.713-0.592 1.146s-0.025 0.879 0.152 1.281v0.107c0.169 0.394 0.45 0.731 0.807 0.968s0.777 0.364 1.206 0.366h0.227c0.707 0 1.386 0.281 1.886 0.781s0.781 1.178 0.781 1.886-0.281 1.386-0.781 1.886c-0.5 0.5-1.178 0.781-1.886 0.781h-0.12c-0.429 0.002-0.848 0.129-1.206 0.366s-0.638 0.573-0.807 0.968z"></path>
</svg>
<!-- <svg id="icon-trash-04" width="32" height="32" viewBox="0 0 32 32" x="624" y="0"> -->
<svg id="icon-trash-04" viewBox="0 0 32 32" >
<path fill="none" stroke-linejoin="round" stroke-linecap="round" stroke-miterlimit="4" stroke-width="3"  d="M12 4h8"></path>
<path fill="none" stroke-linejoin="round" stroke-linecap="round" stroke-miterlimit="4" stroke-width="3.6"  d="M4 8h24M25.333 8l-0.935 14.026c-0.14 2.104-0.21 3.156-0.665 3.954-0.4 0.702-1.004 1.267-1.731 1.62-0.826 0.4-1.881 0.4-3.99 0.4h-4.025c-2.109 0-3.163 0-3.99-0.4-0.727-0.353-1.331-0.917-1.731-1.62-0.455-0.798-0.525-1.85-0.665-3.954l-0.935-14.026"></path>
</svg>
<!-- <svg id="icon-upload" width="32" height="32" viewBox="0 0 32 32" x="672" y="0"> -->
<svg id="icon-upload" width="18" height="18" viewBox="0 0 32 32" >
<path fill="none" stroke-linejoin="round" stroke-linecap="round" stroke-miterlimit="4" stroke-width="2.88" stroke="#000" d="M28 20v5.333c0 0.707-0.281 1.386-0.781 1.886s-1.178 0.781-1.886 0.781h-18.667c-0.707 0-1.386-0.281-1.886-0.781s-0.781-1.178-0.781-1.886v-5.333"></path>
<path fill="none" stroke-linejoin="round" stroke-linecap="round" stroke-miterlimit="4" stroke-width="2.88" stroke="#000" d="M22.666 10.667l-6.667-6.667-6.667 6.667"></path>
<path fill="none" stroke-linejoin="round" stroke-linecap="round" stroke-miterlimit="4" stroke-width="2.88" stroke="#000" d="M16 4v16"></path>
</svg>
<svg id="icon-x" viewBox="0 0 32 32" >
<path fill="none" stroke-linejoin="round" stroke-linecap="round" stroke-miterlimit="4" stroke-width="3.4286" stroke="currentColor" d="M24 8l-16 16"></path>
<path fill="none" stroke-linejoin="round" stroke-linecap="round" stroke-miterlimit="4" stroke-width="3.4286" stroke="currentColor" d="M8 8l16 16"></path>
</svg>

<symbol id="icon-water-glass" viewBox="0 0 32 32">
<path fill="#9be1a0" style="fill: var(--color1, #9be1a0)" d="M27.568 5.226c-0.097-0.321-0.26-0.616-0.479-0.868s-0.488-0.452-0.79-0.589c-0.3-0.142-0.627-0.214-0.958-0.21h-18.63c-0.331-0.019-0.661 0.049-0.958 0.197-0.308 0.139-0.582 0.345-0.803 0.604-0.219 0.251-0.382 0.546-0.479 0.866-0.1 0.318-0.131 0.654-0.091 0.984l2.123 18.377c0.142 1.258 0.738 2.415 1.67 3.255 0.911 0.839 2.096 1.307 3.327 1.313h9.062c1.235-0.005 2.424-0.473 3.34-1.313 0.92-0.848 1.508-2.004 1.657-3.255l1.152-10.331v-0.157l0.893-7.876c0.050-0.332 0.037-0.671-0.039-0.998zM14.492 25.375h-1.295c-0.839-0.047-1.637-0.38-2.266-0.945-0.626-0.572-1.038-1.347-1.165-2.192l-0.311-2.258c-0.040-0.344 0.055-0.69 0.264-0.965s0.515-0.455 0.854-0.503c0.338-0.048 0.682 0.040 0.957 0.246s0.46 0.512 0.515 0.854l0.311 2.232c0.035 0.244 0.154 0.467 0.337 0.63 0.181 0.168 0.415 0.266 0.66 0.276h1.295c0.343 0 0.673 0.138 0.915 0.384s0.379 0.58 0.379 0.928-0.136 0.682-0.379 0.928c-0.243 0.246-0.572 0.384-0.915 0.384h-0.155zM24.849 13.259c-2.732 0.538-5.062 0.643-7.535-1.313-3.068-2.455-6.784-1.667-10.357-0.381l-0.647-5.566c-0.013-0.056-0.013-0.114 0-0.171 0.018-0.055 0.049-0.105 0.091-0.144 0.031-0.048 0.076-0.085 0.129-0.105 0.051-0.015 0.105-0.015 0.155 0h18.798c0.049 0.028 0.092 0.063 0.13 0.105 0.039 0.039 0.065 0.091 0.078 0.144 0.020 0.060 0.020 0.124 0 0.184l-0.842 7.246z"></path>
</symbol>
</svg>
